# Blender v2.69 (sub 0) OBJ File: ''
# www.blender.org
mtllib cylinder.mtl
o Surface
v -1.648461 -1.119323 0.003711
v -1.648461 -0.833609 0.003711
v -1.648461 -0.547894 0.003711
v -1.648461 -0.262180 0.003711
v -1.648461 0.023534 0.003711
v -1.648461 0.309249 0.003711
v -1.648461 0.594963 0.003711
v -1.648461 0.880677 0.003711
v -1.824693 -1.119323 -0.229268
v -1.824693 -0.833609 -0.229267
v -1.824693 -0.547894 -0.229267
v -1.824693 -0.262180 -0.229268
v -1.824693 0.023534 -0.229268
v -1.824692 0.309249 -0.229268
v -1.824693 0.594963 -0.229267
v -1.824692 0.880677 -0.229268
v -1.910571 -1.119323 -0.433175
v -1.910571 -0.833609 -0.433175
v -1.910571 -0.547894 -0.433175
v -1.910571 -0.262180 -0.433175
v -1.910571 0.023534 -0.433175
v -1.910571 0.309249 -0.433175
v -1.910571 0.594963 -0.433175
v -1.910571 0.880677 -0.433175
v -1.937886 -1.119323 -0.584662
v -1.937886 -0.833609 -0.584662
v -1.937886 -0.547895 -0.584662
v -1.937886 -0.262180 -0.584662
v -1.937886 0.023534 -0.584662
v -1.937886 0.309249 -0.584662
v -1.937886 0.594963 -0.584662
v -1.937886 0.880677 -0.584662
v -1.941354 -1.119323 -0.703395
v -1.941354 -0.833609 -0.703395
v -1.941354 -0.547894 -0.703395
v -1.941354 -0.262180 -0.703395
v -1.941354 0.023534 -0.703395
v -1.941354 0.309249 -0.703395
v -1.941354 0.594963 -0.703395
v -1.941354 0.880677 -0.703395
v -1.937886 -1.119323 -0.822129
v -1.937886 -0.833609 -0.822129
v -1.937886 -0.547894 -0.822129
v -1.937886 -0.262180 -0.822129
v -1.937886 0.023534 -0.822129
v -1.937886 0.309249 -0.822129
v -1.937886 0.594963 -0.822129
v -1.937886 0.880677 -0.822129
v -1.910571 -1.119323 -0.973615
v -1.910571 -0.833609 -0.973615
v -1.910571 -0.547894 -0.973615
v -1.910571 -0.262180 -0.973615
v -1.910571 0.023534 -0.973615
v -1.910571 0.309249 -0.973615
v -1.910571 0.594963 -0.973615
v -1.910571 0.880677 -0.973615
v -1.824693 -1.119323 -1.177523
v -1.824693 -0.833609 -1.177523
v -1.824693 -0.547894 -1.177523
v -1.824693 -0.262180 -1.177523
v -1.824693 0.023534 -1.177523
v -1.824693 0.309249 -1.177523
v -1.824693 0.594963 -1.177523
v -1.824693 0.880677 -1.177523
v -1.648461 -1.119323 -1.410502
v -1.648461 -0.833609 -1.410502
v -1.648461 -0.547894 -1.410502
v -1.648461 -0.262180 -1.410502
v -1.648461 0.023534 -1.410502
v -1.648461 0.309249 -1.410502
v -1.648461 0.594963 -1.410502
v -1.648461 0.880677 -1.410502
v -1.415482 -1.119323 -1.586734
v -1.415482 -0.833609 -1.586734
v -1.415482 -0.547894 -1.586734
v -1.415482 -0.262180 -1.586734
v -1.415482 0.023534 -1.586734
v -1.415482 0.309249 -1.586734
v -1.415482 0.594963 -1.586734
v -1.415482 0.880677 -1.586734
v -1.211574 -1.119323 -1.672612
v -1.211574 -0.833609 -1.672612
v -1.211574 -0.547894 -1.672612
v -1.211574 -0.262180 -1.672612
v -1.211574 0.023534 -1.672612
v -1.211574 0.309249 -1.672612
v -1.211574 0.594963 -1.672612
v -1.211574 0.880677 -1.672612
v -1.060088 -1.119323 -1.699927
v -1.060088 -0.833609 -1.699927
v -1.060088 -0.547895 -1.699927
v -1.060088 -0.262180 -1.699927
v -1.060088 0.023534 -1.699927
v -1.060088 0.309249 -1.699927
v -1.060088 0.594963 -1.699927
v -1.060088 0.880677 -1.699927
v -0.941354 -1.119323 -1.703395
v -0.941354 -0.833609 -1.703395
v -0.941354 -0.547894 -1.703395
v -0.941354 -0.262180 -1.703395
v -0.941354 0.023534 -1.703395
v -0.941354 0.309249 -1.703395
v -0.941354 0.594963 -1.703395
v -0.941354 0.880677 -1.703395
v -0.822621 -1.119323 -1.699927
v -0.822621 -0.833609 -1.699927
v -0.822621 -0.547894 -1.699927
v -0.822621 -0.262180 -1.699927
v -0.822621 0.023534 -1.699927
v -0.822621 0.309249 -1.699927
v -0.822621 0.594963 -1.699927
v -0.822621 0.880677 -1.699927
v -0.671134 -1.119323 -1.672612
v -0.671134 -0.833609 -1.672612
v -0.671134 -0.547894 -1.672612
v -0.671134 -0.262180 -1.672612
v -0.671134 0.023534 -1.672612
v -0.671134 0.309249 -1.672612
v -0.671134 0.594963 -1.672612
v -0.671134 0.880677 -1.672612
v -0.467226 -1.119323 -1.586734
v -0.467226 -0.833609 -1.586734
v -0.467226 -0.547894 -1.586734
v -0.467226 -0.262180 -1.586734
v -0.467226 0.023534 -1.586734
v -0.467226 0.309249 -1.586734
v -0.467226 0.594963 -1.586734
v -0.467226 0.880677 -1.586734
v -0.234247 -1.119323 -1.410502
v -0.234248 -0.833609 -1.410502
v -0.234248 -0.547894 -1.410502
v -0.234248 -0.262180 -1.410502
v -0.234248 0.023534 -1.410502
v -0.234248 0.309249 -1.410502
v -0.234247 0.594963 -1.410502
v -0.234248 0.880677 -1.410502
v -0.058016 -1.119323 -1.177523
v -0.058016 -0.833609 -1.177523
v -0.058016 -0.547894 -1.177523
v -0.058016 -0.262180 -1.177523
v -0.058016 0.023534 -1.177523
v -0.058016 0.309249 -1.177523
v -0.058016 0.594963 -1.177523
v -0.058016 0.880677 -1.177523
v 0.027863 -1.119323 -0.973615
v 0.027863 -0.833609 -0.973615
v 0.027863 -0.547894 -0.973615
v 0.027863 -0.262180 -0.973615
v 0.027863 0.023534 -0.973615
v 0.027863 0.309249 -0.973615
v 0.027863 0.594963 -0.973615
v 0.027862 0.880677 -0.973615
v 0.055177 -1.119323 -0.822129
v 0.055178 -0.833609 -0.822129
v 0.055178 -0.547895 -0.822129
v 0.055177 -0.262180 -0.822129
v 0.055177 0.023534 -0.822129
v 0.055177 0.309249 -0.822129
v 0.055178 0.594963 -0.822129
v 0.055178 0.880677 -0.822129
v 0.058646 -1.119323 -0.703395
v 0.058646 -0.833609 -0.703395
v 0.058646 -0.547894 -0.703395
v 0.058646 -0.262180 -0.703395
v 0.058646 0.023534 -0.703395
v 0.058646 0.309249 -0.703395
v 0.058646 0.594963 -0.703395
v 0.058646 0.880677 -0.703395
v 0.055177 -1.119323 -0.584662
v 0.055177 -0.833609 -0.584662
v 0.055177 -0.547894 -0.584662
v 0.055177 -0.262180 -0.584662
v 0.055177 0.023534 -0.584662
v 0.055177 0.309249 -0.584662
v 0.055177 0.594963 -0.584662
v 0.055177 0.880677 -0.584662
v 0.027863 -1.119323 -0.433175
v 0.027863 -0.833609 -0.433175
v 0.027863 -0.547894 -0.433175
v 0.027863 -0.262180 -0.433175
v 0.027862 0.023534 -0.433175
v 0.027863 0.309249 -0.433175
v 0.027863 0.594963 -0.433175
v 0.027863 0.880677 -0.433175
v -0.058016 -1.119323 -0.229268
v -0.058016 -0.833609 -0.229268
v -0.058016 -0.547894 -0.229267
v -0.058016 -0.262180 -0.229268
v -0.058016 0.023534 -0.229268
v -0.058016 0.309249 -0.229268
v -0.058016 0.594963 -0.229268
v -0.058016 0.880677 -0.229268
v -0.234247 -1.119323 0.003711
v -0.234248 -0.833609 0.003711
v -0.234248 -0.547894 0.003711
v -0.234248 -0.262180 0.003711
v -0.234248 0.023534 0.003711
v -0.234247 0.309249 0.003711
v -0.234247 0.594963 0.003711
v -0.234248 0.880677 0.003711
v -0.467226 -1.119323 0.179943
v -0.467226 -0.833609 0.179943
v -0.467226 -0.547894 0.179943
v -0.467226 -0.262180 0.179943
v -0.467226 0.023534 0.179943
v -0.467226 0.309249 0.179943
v -0.467226 0.594963 0.179943
v -0.467226 0.880677 0.179943
v -0.671134 -1.119323 0.265822
v -0.671134 -0.833609 0.265821
v -0.671134 -0.547894 0.265821
v -0.671134 -0.262180 0.265821
v -0.671134 0.023534 0.265821
v -0.671134 0.309249 0.265821
v -0.671134 0.594963 0.265822
v -0.671134 0.880677 0.265821
v -0.822621 -1.119323 0.293136
v -0.822621 -0.833609 0.293136
v -0.822621 -0.547895 0.293136
v -0.822621 -0.262180 0.293136
v -0.822621 0.023534 0.293136
v -0.822621 0.309249 0.293136
v -0.822621 0.594963 0.293136
v -0.822621 0.880677 0.293136
v -0.941354 -1.119323 0.296605
v -0.941354 -0.833609 0.296605
v -0.941354 -0.547894 0.296605
v -0.941354 -0.262180 0.296605
v -0.941354 0.023534 0.296605
v -0.941354 0.309249 0.296605
v -0.941354 0.594963 0.296605
v -0.941354 0.880677 0.296605
v -1.060088 -1.119323 0.293136
v -1.060088 -0.833609 0.293136
v -1.060088 -0.547894 0.293136
v -1.060088 -0.262180 0.293136
v -1.060088 0.023534 0.293136
v -1.060088 0.309249 0.293136
v -1.060088 0.594963 0.293136
v -1.060088 0.880677 0.293136
v -1.211574 -1.119323 0.265822
v -1.211574 -0.833609 0.265821
v -1.211574 -0.547894 0.265822
v -1.211574 -0.262180 0.265821
v -1.211574 0.023534 0.265821
v -1.211574 0.309249 0.265821
v -1.211574 0.594963 0.265821
v -1.211574 0.880677 0.265822
v -1.415482 -1.119323 0.179943
v -1.415482 -0.833609 0.179943
v -1.415482 -0.547894 0.179943
v -1.415482 -0.262180 0.179943
v -1.415482 0.023534 0.179943
v -1.415482 0.309249 0.179943
v -1.415482 0.594963 0.179943
v -1.415482 0.880677 0.179943
vn -0.707083 0.000000 0.707083
vn -0.866268 0.000000 0.499557
vn -0.866270 0.000000 0.499576
vn -0.707107 0.000000 0.707107
vn -0.866270 0.000001 0.499576
vn -0.958647 0.000000 0.284494
vn -0.958670 0.000001 0.284521
vn -0.994598 0.000000 0.103610
vn -0.958670 0.000000 0.284520
vn -0.994618 0.000000 0.103613
vn -1.000000 0.000000 0.000000
vn -0.994598 0.000000 -0.103610
vn -0.994618 0.000000 -0.103613
vn -0.958647 0.000000 -0.284494
vn -0.958670 -0.000000 -0.284520
vn -0.866268 0.000000 -0.499557
vn -0.866270 0.000000 -0.499576
vn -0.707083 0.000000 -0.707083
vn -0.707107 0.000001 -0.707107
vn -0.499557 0.000000 -0.866268
vn -0.499576 0.000000 -0.866270
vn -0.499576 0.000001 -0.866270
vn -0.284494 0.000000 -0.958647
vn -0.284521 0.000001 -0.958670
vn -0.103610 0.000000 -0.994598
vn -0.284520 0.000000 -0.958670
vn -0.103613 0.000000 -0.994618
vn 0.000000 0.000000 -1.000000
vn 0.103610 0.000000 -0.994598
vn -0.000001 -0.000000 -1.000000
vn 0.103612 0.000000 -0.994618
vn 0.284494 0.000000 -0.958647
vn 0.284521 -0.000000 -0.958670
vn 0.284520 0.000000 -0.958670
vn 0.499557 0.000000 -0.866268
vn 0.499576 0.000000 -0.866270
vn 0.707083 0.000000 -0.707083
vn 0.707107 0.000000 -0.707106
vn 0.866268 0.000000 -0.499557
vn 0.866270 0.000000 -0.499576
vn 0.866270 0.000001 -0.499576
vn 0.958647 0.000000 -0.284494
vn 0.958670 0.000001 -0.284521
vn 0.994598 0.000000 -0.103610
vn 0.958670 -0.000000 -0.284520
vn 0.994618 0.000000 -0.103612
vn 1.000000 0.000000 0.000000
vn 0.999969 0.000000 0.000000
vn 0.994598 0.000000 0.103610
vn 0.994618 0.000000 0.103612
vn 0.958647 0.000000 0.284494
vn 0.958670 -0.000000 0.284520
vn 0.866268 0.000000 0.499557
vn 0.866270 0.000000 0.499576
vn 0.707083 0.000000 0.707083
vn 0.707107 0.000000 0.707107
vn 0.499557 0.000000 0.866268
vn 0.499576 0.000000 0.866270
vn 0.499576 0.000001 0.866270
vn 0.284494 0.000000 0.958647
vn 0.284521 0.000001 0.958670
vn 0.103610 0.000000 0.994598
vn 0.284520 0.000000 0.958670
vn 0.103612 0.000000 0.994618
vn 0.000000 0.000000 1.000000
vn -0.103610 0.000000 0.994598
vn -0.103612 0.000000 0.994618
vn -0.284494 0.000000 0.958647
vn -0.284520 -0.000000 0.958670
vn -0.499557 0.000000 0.866268
vn -0.499576 -0.000000 0.866270
vn -0.707107 0.000001 0.707107
vn -0.994618 -0.000001 -0.103613
vn -0.707107 0.000000 -0.707107
vn 0.103613 -0.000000 -0.994618
vn 0.707107 0.000001 -0.707107
vn 0.994618 -0.000000 0.103613
vn 0.707107 0.000001 0.707107
usemtl None
s 1
f 2//1 10//2 9//3
f 3//1 11//2 10//2
f 4//1 12//2 3//1
f 5//1 13//2 4//1
f 6//1 14//2 5//1
f 7//1 15//2 6//1
f 8//4 16//5 7//1
f 10//2 18//6 9//3
f 11//2 19//6 10//2
f 12//2 20//6 11//2
f 13//2 21//6 12//2
f 14//2 22//6 13//2
f 15//2 23//6 14//2
f 16//5 24//7 15//2
f 18//6 26//8 17//9
f 19//6 27//8 18//6
f 20//6 28//8 19//6
f 21//6 29//8 20//6
f 22//6 30//8 21//6
f 23//6 31//8 22//6
f 24//7 32//10 23//6
f 26//8 34//11 25//10
f 27//8 35//11 26//8
f 28//8 36//11 27//8
f 29//8 37//11 28//8
f 30//8 38//11 29//8
f 31//8 39//11 30//8
f 32//10 40//11 31//8
f 34//11 42//12 33//11
f 35//11 43//12 34//11
f 36//11 44//12 35//11
f 37//11 45//12 36//11
f 38//11 46//12 37//11
f 39//11 47//12 38//11
f 40//11 48//13 39//11
f 42//12 50//14 49//15
f 43//12 51//14 50//14
f 44//12 52//14 43//12
f 45//12 53//14 44//12
f 46//12 54//14 45//12
f 47//12 55//14 46//12
f 48//13 56//15 47//12
f 50//14 58//16 49//15
f 51//14 59//16 50//14
f 52//14 60//16 51//14
f 53//14 61//16 52//14
f 54//14 62//16 53//14
f 55//14 63//16 54//14
f 56//15 64//17 55//14
f 58//16 66//18 57//17
f 59//16 67//18 58//16
f 60//16 68//18 59//16
f 61//16 69//18 60//16
f 62//16 70//18 61//16
f 63//16 71//18 62//16
f 64//17 72//19 63//16
f 66//18 74//20 73//21
f 67//18 75//20 74//20
f 68//18 76//20 67//18
f 69//18 77//20 68//18
f 70//18 78//20 69//18
f 71//18 79//20 70//18
f 72//19 80//22 71//18
f 74//20 82//23 73//21
f 75//20 83//23 74//20
f 76//20 84//23 75//20
f 77//20 85//23 76//20
f 78//20 86//23 77//20
f 79//20 87//23 78//20
f 80//22 88//24 79//20
f 82//23 90//25 81//26
f 83//23 91//25 82//23
f 84//23 92//25 83//23
f 85//23 93//25 84//23
f 86//23 94//25 85//23
f 87//23 95//25 86//23
f 88//24 96//27 87//23
f 90//25 98//28 89//27
f 91//25 99//28 90//25
f 92//25 100//28 91//25
f 93//25 101//28 92//25
f 94//25 102//28 93//25
f 95//25 103//28 94//25
f 96//27 104//28 95//25
f 98//28 106//29 97//30
f 99//28 107//29 98//28
f 100//28 108//29 99//28
f 101//28 109//29 100//28
f 102//28 110//29 101//28
f 103//28 111//29 102//28
f 104//28 112//31 103//28
f 106//29 114//32 113//33
f 107//29 115//32 114//32
f 108//29 116//32 107//29
f 109//29 117//32 108//29
f 110//29 118//32 109//29
f 111//29 119//32 110//29
f 112//31 120//34 111//29
f 114//32 122//35 113//33
f 115//32 123//35 114//32
f 116//32 124//35 115//32
f 117//32 125//35 116//32
f 118//32 126//35 117//32
f 119//32 127//35 118//32
f 120//34 128//36 119//32
f 122//35 130//37 121//36
f 123//35 131//37 122//35
f 124//35 132//37 123//35
f 125//35 133//37 124//35
f 126//35 134//37 125//35
f 127//35 135//37 126//35
f 128//36 136//38 127//35
f 130//37 138//39 137//40
f 131//37 139//39 138//39
f 132//37 140//39 131//37
f 133//37 141//39 132//37
f 134//37 142//39 133//37
f 135//37 143//39 134//37
f 136//38 144//41 135//37
f 138//39 146//42 137//40
f 139//39 147//42 138//39
f 140//39 148//42 139//39
f 141//39 149//42 140//39
f 142//39 150//42 141//39
f 143//39 151//42 142//39
f 144//41 152//43 143//39
f 146//42 154//44 145//45
f 147//42 155//44 146//42
f 148//42 156//44 147//42
f 149//42 157//44 148//42
f 150//42 158//44 149//42
f 151//42 159//44 150//42
f 152//43 160//46 151//42
f 154//44 162//47 153//46
f 155//44 163//47 154//44
f 156//44 164//47 155//44
f 157//44 165//48 156//44
f 158//44 166//47 157//44
f 159//44 167//47 158//44
f 160//46 168//47 159//44
f 162//47 170//49 161//47
f 163//47 171//49 162//47
f 164//47 172//49 163//47
f 165//48 173//49 164//47
f 166//47 174//49 165//48
f 167//47 175//49 166//47
f 168//47 176//50 167//47
f 170//49 178//51 177//52
f 171//49 179//51 178//51
f 172//49 180//51 171//49
f 173//49 181//51 172//49
f 174//49 182//51 173//49
f 175//49 183//51 174//49
f 176//50 184//52 175//49
f 178//51 186//53 177//52
f 179//51 187//53 178//51
f 180//51 188//53 179//51
f 181//51 189//53 180//51
f 182//51 190//53 181//51
f 183//51 191//53 182//51
f 184//52 192//54 183//51
f 186//53 194//55 185//54
f 187//53 195//55 186//53
f 188//53 196//55 187//53
f 189//53 197//55 188//53
f 190//53 198//55 189//53
f 191//53 199//55 190//53
f 192//54 200//56 191//53
f 194//55 202//57 201//58
f 195//55 203//57 202//57
f 196//55 204//57 195//55
f 197//55 205//57 196//55
f 198//55 206//57 197//55
f 199//55 207//57 198//55
f 200//56 208//59 199//55
f 202//57 210//60 201//58
f 203//57 211//60 202//57
f 204//57 212//60 203//57
f 205//57 213//60 204//57
f 206//57 214//60 205//57
f 207//57 215//60 206//57
f 208//59 216//61 207//57
f 210//60 218//62 209//63
f 211//60 219//62 210//60
f 212//60 220//62 211//60
f 213//60 221//62 212//60
f 214//60 222//62 213//60
f 215//60 223//62 214//60
f 216//61 224//64 215//60
f 218//62 226//65 217//64
f 219//62 227//65 218//62
f 220//62 228//65 219//62
f 221//62 229//65 220//62
f 222//62 230//65 221//62
f 223//62 231//65 222//62
f 224//64 232//65 223//62
f 226//65 234//66 225//65
f 227//65 235//66 226//65
f 228//65 236//66 227//65
f 229//65 237//66 228//65
f 230//65 238//66 229//65
f 231//65 239//66 230//65
f 232//65 240//67 231//65
f 234//66 242//68 241//69
f 235//66 243//68 242//68
f 236//66 244//68 235//66
f 237//66 245//68 236//66
f 238//66 246//68 237//66
f 239//66 247//68 238//66
f 240//67 248//69 239//66
f 242//68 250//70 241//69
f 243//68 251//70 242//68
f 244//68 252//70 243//68
f 245//68 253//70 244//68
f 246//68 254//70 245//68
f 247//68 255//70 246//68
f 248//69 256//71 247//68
f 250//70 2//1 249//71
f 251//70 3//1 250//70
f 252//70 4//1 251//70
f 253//70 5//1 252//70
f 254//70 6//1 253//70
f 255//70 7//1 254//70
f 256//71 8//4 255//70
f 1//72 2//1 9//3
f 2//1 3//1 10//2
f 12//2 11//2 3//1
f 13//2 12//2 4//1
f 14//2 13//2 5//1
f 15//2 14//2 6//1
f 16//5 15//2 7//1
f 18//6 17//9 9//3
f 19//6 18//6 10//2
f 20//6 19//6 11//2
f 21//6 20//6 12//2
f 22//6 21//6 13//2
f 23//6 22//6 14//2
f 24//7 23//6 15//2
f 26//8 25//10 17//9
f 27//8 26//8 18//6
f 28//8 27//8 19//6
f 29//8 28//8 20//6
f 30//8 29//8 21//6
f 31//8 30//8 22//6
f 32//10 31//8 23//6
f 34//11 33//11 25//10
f 35//11 34//11 26//8
f 36//11 35//11 27//8
f 37//11 36//11 28//8
f 38//11 37//11 29//8
f 39//11 38//11 30//8
f 40//11 39//11 31//8
f 42//12 41//73 33//11
f 43//12 42//12 34//11
f 44//12 43//12 35//11
f 45//12 44//12 36//11
f 46//12 45//12 37//11
f 47//12 46//12 38//11
f 48//13 47//12 39//11
f 41//73 42//12 49//15
f 42//12 43//12 50//14
f 52//14 51//14 43//12
f 53//14 52//14 44//12
f 54//14 53//14 45//12
f 55//14 54//14 46//12
f 56//15 55//14 47//12
f 58//16 57//17 49//15
f 59//16 58//16 50//14
f 60//16 59//16 51//14
f 61//16 60//16 52//14
f 62//16 61//16 53//14
f 63//16 62//16 54//14
f 64//17 63//16 55//14
f 66//18 65//74 57//17
f 67//18 66//18 58//16
f 68//18 67//18 59//16
f 69//18 68//18 60//16
f 70//18 69//18 61//16
f 71//18 70//18 62//16
f 72//19 71//18 63//16
f 65//74 66//18 73//21
f 66//18 67//18 74//20
f 76//20 75//20 67//18
f 77//20 76//20 68//18
f 78//20 77//20 69//18
f 79//20 78//20 70//18
f 80//22 79//20 71//18
f 82//23 81//26 73//21
f 83//23 82//23 74//20
f 84//23 83//23 75//20
f 85//23 84//23 76//20
f 86//23 85//23 77//20
f 87//23 86//23 78//20
f 88//24 87//23 79//20
f 90//25 89//27 81//26
f 91//25 90//25 82//23
f 92//25 91//25 83//23
f 93//25 92//25 84//23
f 94//25 93//25 85//23
f 95//25 94//25 86//23
f 96//27 95//25 87//23
f 98//28 97//30 89//27
f 99//28 98//28 90//25
f 100//28 99//28 91//25
f 101//28 100//28 92//25
f 102//28 101//28 93//25
f 103//28 102//28 94//25
f 104//28 103//28 95//25
f 106//29 105//75 97//30
f 107//29 106//29 98//28
f 108//29 107//29 99//28
f 109//29 108//29 100//28
f 110//29 109//29 101//28
f 111//29 110//29 102//28
f 112//31 111//29 103//28
f 105//75 106//29 113//33
f 106//29 107//29 114//32
f 116//32 115//32 107//29
f 117//32 116//32 108//29
f 118//32 117//32 109//29
f 119//32 118//32 110//29
f 120//34 119//32 111//29
f 122//35 121//36 113//33
f 123//35 122//35 114//32
f 124//35 123//35 115//32
f 125//35 124//35 116//32
f 126//35 125//35 117//32
f 127//35 126//35 118//32
f 128//36 127//35 119//32
f 130//37 129//76 121//36
f 131//37 130//37 122//35
f 132//37 131//37 123//35
f 133//37 132//37 124//35
f 134//37 133//37 125//35
f 135//37 134//37 126//35
f 136//38 135//37 127//35
f 129//76 130//37 137//40
f 130//37 131//37 138//39
f 140//39 139//39 131//37
f 141//39 140//39 132//37
f 142//39 141//39 133//37
f 143//39 142//39 134//37
f 144//41 143//39 135//37
f 146//42 145//45 137//40
f 147//42 146//42 138//39
f 148//42 147//42 139//39
f 149//42 148//42 140//39
f 150//42 149//42 141//39
f 151//42 150//42 142//39
f 152//43 151//42 143//39
f 154//44 153//46 145//45
f 155//44 154//44 146//42
f 156//44 155//44 147//42
f 157//44 156//44 148//42
f 158//44 157//44 149//42
f 159//44 158//44 150//42
f 160//46 159//44 151//42
f 162//47 161//47 153//46
f 163//47 162//47 154//44
f 164//47 163//47 155//44
f 165//48 164//47 156//44
f 166//47 165//48 157//44
f 167//47 166//47 158//44
f 168//47 167//47 159//44
f 170//49 169//77 161//47
f 171//49 170//49 162//47
f 172//49 171//49 163//47
f 173//49 172//49 164//47
f 174//49 173//49 165//48
f 175//49 174//49 166//47
f 176//50 175//49 167//47
f 169//77 170//49 177//52
f 170//49 171//49 178//51
f 180//51 179//51 171//49
f 181//51 180//51 172//49
f 182//51 181//51 173//49
f 183//51 182//51 174//49
f 184//52 183//51 175//49
f 186//53 185//54 177//52
f 187//53 186//53 178//51
f 188//53 187//53 179//51
f 189//53 188//53 180//51
f 190//53 189//53 181//51
f 191//53 190//53 182//51
f 192//54 191//53 183//51
f 194//55 193//78 185//54
f 195//55 194//55 186//53
f 196//55 195//55 187//53
f 197//55 196//55 188//53
f 198//55 197//55 189//53
f 199//55 198//55 190//53
f 200//56 199//55 191//53
f 193//78 194//55 201//58
f 194//55 195//55 202//57
f 204//57 203//57 195//55
f 205//57 204//57 196//55
f 206//57 205//57 197//55
f 207//57 206//57 198//55
f 208//59 207//57 199//55
f 210//60 209//63 201//58
f 211//60 210//60 202//57
f 212//60 211//60 203//57
f 213//60 212//60 204//57
f 214//60 213//60 205//57
f 215//60 214//60 206//57
f 216//61 215//60 207//57
f 218//62 217//64 209//63
f 219//62 218//62 210//60
f 220//62 219//62 211//60
f 221//62 220//62 212//60
f 222//62 221//62 213//60
f 223//62 222//62 214//60
f 224//64 223//62 215//60
f 226//65 225//65 217//64
f 227//65 226//65 218//62
f 228//65 227//65 219//62
f 229//65 228//65 220//62
f 230//65 229//65 221//62
f 231//65 230//65 222//62
f 232//65 231//65 223//62
f 234//66 233//67 225//65
f 235//66 234//66 226//65
f 236//66 235//66 227//65
f 237//66 236//66 228//65
f 238//66 237//66 229//65
f 239//66 238//66 230//65
f 240//67 239//66 231//65
f 233//67 234//66 241//69
f 234//66 235//66 242//68
f 244//68 243//68 235//66
f 245//68 244//68 236//66
f 246//68 245//68 237//66
f 247//68 246//68 238//66
f 248//69 247//68 239//66
f 250//70 249//71 241//69
f 251//70 250//70 242//68
f 252//70 251//70 243//68
f 253//70 252//70 244//68
f 254//70 253//70 245//68
f 255//70 254//70 246//68
f 256//71 255//70 247//68
f 2//1 1//72 249//71
f 3//1 2//1 250//70
f 4//1 3//1 251//70
f 5//1 4//1 252//70
f 6//1 5//1 253//70
f 7//1 6//1 254//70
f 8//4 7//1 255//70
